<svg xmlns="http://www.w3.org/2000/svg" version="1.1" xmlns:xlink="http://www.w3.org/1999/xlink" xmlns:svgjs="http://svgjs.dev/svgjs" width="1440" height="560" preserveAspectRatio="none" viewBox="0 0 1440 560"><g mask="url(&quot;#SvgjsMask1462&quot;)" fill="none"><rect width="1440" height="560" x="0" y="0" fill="url(&quot;#SvgjsLinearGradient1463&quot;)"></rect><path d="M923.843,362.812C958.906,360.632,981.181,329.55,998.783,299.147C1016.436,268.655,1032.257,233.871,1016.833,202.192C999.778,167.163,962.802,145.46,923.843,145.23C884.499,144.997,848.307,166.839,828.927,201.08C809.829,234.822,811.191,276.151,830.815,309.59C850.196,342.614,885.626,365.188,923.843,362.812" fill="rgba(28, 83, 142, 0.4)" class="triangle-float1"></path><path d="M607.276,290.549C665.231,288.706,702.445,235.26,729.836,184.154C755.301,136.642,769.383,81.97,744.772,34.01C718.084,-17.998,665.731,-54.933,607.276,-54.685C549.195,-54.438,499.929,-15.64,471.789,35.17C444.573,84.312,444.103,142.777,470.43,192.401C498.627,245.549,547.141,292.461,607.276,290.549" fill="rgba(28, 83, 142, 0.4)" class="triangle-float2"></path><path d="M392.945,497.666C434.618,496.027,474.965,478.175,495.477,441.863C515.688,406.085,509.532,362.8,489.347,327.008C468.748,290.483,434.83,262.062,392.945,260.054C347.527,257.877,302.964,278.233,279.087,316.93C254.017,357.561,249.978,410.12,275.426,450.516C299.539,488.793,347.741,499.443,392.945,497.666" fill="rgba(28, 83, 142, 0.4)" class="triangle-float1"></path><path d="M1259.29 337.32 a164.47 164.47 0 1 0 328.94 0 a164.47 164.47 0 1 0 -328.94 0z" fill="rgba(28, 83, 142, 0.4)" class="triangle-float1"></path><path d="M510.537,145.451C538.51,145.878,570.247,142.3,583.81,117.832C597.139,93.786,583.453,65.037,567.539,42.618C554.405,24.115,533.227,14.82,510.537,14.604C487.398,14.384,464.736,22.448,451.623,41.514C436.462,63.559,427.848,92.375,441.041,115.651C454.363,139.153,483.525,145.038,510.537,145.451" fill="rgba(28, 83, 142, 0.4)" class="triangle-float1"></path><path d="M291.75 383.38 a118.08 118.08 0 1 0 236.16 0 a118.08 118.08 0 1 0 -236.16 0z" fill="rgba(28, 83, 142, 0.4)" class="triangle-float2"></path><path d="M763.67,697.519C811.26,697.321,861.421,683.844,884.979,642.494C908.36,601.454,893.643,551.956,869.847,511.155C846.275,470.738,810.456,434.08,763.67,434.493C717.408,434.901,684.161,473.132,660.688,512.999C636.752,553.652,617.611,602.314,640.602,643.509C664.002,685.437,715.654,697.718,763.67,697.519" fill="rgba(28, 83, 142, 0.4)" class="triangle-float3"></path><path d="M1172.854,652.88C1204.611,653.2,1237.909,646.707,1255.568,620.31C1275.12,591.084,1278.93,551.896,1260.405,522.008C1242.648,493.36,1206.465,484.343,1172.854,486.861C1143.617,489.051,1120.606,508.543,1105.411,533.617C1089.495,559.882,1077.858,591.94,1092.975,618.673C1108.257,645.696,1141.811,652.567,1172.854,652.88" fill="rgba(28, 83, 142, 0.4)" class="triangle-float3"></path><path d="M1195.02 502.7 a165.71 165.71 0 1 0 331.42 0 a165.71 165.71 0 1 0 -331.42 0z" fill="rgba(28, 83, 142, 0.4)" class="triangle-float2"></path><path d="M757.968,297.422C806.445,296.315,860.949,294.882,886.434,253.629C912.795,210.957,896.897,157.16,871.243,114.059C846.29,72.136,806.745,36.789,757.968,37.792C710.514,38.767,677.681,78.334,652.482,118.556C624.957,162.491,592.584,215.081,618.921,259.738C645.067,304.072,706.512,298.597,757.968,297.422" fill="rgba(28, 83, 142, 0.4)" class="triangle-float3"></path></g><defs><mask id="SvgjsMask1462"><rect width="1440" height="560" fill="#ffffff"></rect></mask><linearGradient x1="15.28%" y1="-39.29%" x2="84.72%" y2="139.29%" gradientUnits="userSpaceOnUse" id="SvgjsLinearGradient1463"><stop stop-color="#0e2a47" offset="0"></stop><stop stop-color="rgba(0, 0, 0, 1)" offset="1"></stop><stop stop-color="rgba(0, 147, 255, 1)" offset="1"></stop></linearGradient><style>
                @keyframes float1 {
                    0%{transform: translate(0, 0)}
                    50%{transform: translate(-10px, 0)}
                    100%{transform: translate(0, 0)}
                }

                .triangle-float1 {
                    animation: float1 5s infinite;
                }

                @keyframes float2 {
                    0%{transform: translate(0, 0)}
                    50%{transform: translate(-5px, -5px)}
                    100%{transform: translate(0, 0)}
                }

                .triangle-float2 {
                    animation: float2 4s infinite;
                }

                @keyframes float3 {
                    0%{transform: translate(0, 0)}
                    50%{transform: translate(0, -10px)}
                    100%{transform: translate(0, 0)}
                }

                .triangle-float3 {
                    animation: float3 6s infinite;
                }
            </style></defs></svg>